<svg t="1755930816026" class="icon" viewBox="0 0 1024 1024" version="1.1" xmlns="http://www.w3.org/2000/svg" p-id="6742" width="200" height="200" fill="currentColor"><path d="M74.97196999 414.90963001c34.04231111-76.21594112 107.52758557-132.7710811 189.32622222-148.30554112 63.47283001-10.92266667 128.52337778 5.76474112 184.22897778 36.34820778 47.27087445 24.09054777 88.95905223 57.58672555 127.12770446 94.17765888-18.38648889 20.93511111-44.47952555 32.8286811-65.41463779 50.91176335-52.4894811-44.2368-109.95484445-88.4129189-179.73854777-99.09286002-89.80859221-14.98832555-180.40604445 56.00900779-193.99869668 144.66465223-9.8910811 52.24675555 11.5294811 107.70963001 51.39721558 142.11603001 45.14702222 39.80705223 110.62234112 50.7297189 167.96633998 35.55934777 65.536-15.83786667 116.02299221-64.92918557 155.70868224-116.93321444 61.53102222-82.04136334 112.86755555-171.12177778 168.20906666-257.28948224 15.83786667-21.78465223 53.94583666-19.6001189 66.81031112 4.36906667 72.39300779 124.03294777 143.45102222 248.85475555 215.72266666 372.94838557 8.61676999 17.17285888 5.03656334 40.71727445-10.92266666 52.4894811-14.86696334 12.07561443-37.92592555 11.65084445-52.48948224-0.78885888-85.86429667-61.59170333-171.66791111-123.30476999-257.35016221-185.1392 21.48124445-17.11217778 43.69066667-33.37481443 65.96076999-49.45540779 27.00325888 14.6849189 49.81949667 37.7438811 79.18933334 47.39223779-23.18032555-45.02565888-49.63745223-88.4129189-75.48776334-131.92154112-48.54518557 67.29576334-87.68474112 141.32716999-140.11353999 206.01363002-54.55265223 71.36142222-131.0113189 132.22494777-222.21558556 145.33214776-44.2368 3.88361443-90.23336334 4.79383666-132.40699221-11.34743666-60.86352555-21.78465223-114.14186667-66.81031111-141.75194112-125.7927111-32.10050333-63.8369189-30.46210333-142.23739221 0.24272554-206.25635556z" p-id="6743" ></path></svg>